<svg width="260" height="350" viewBox="0 0 260 350"
    xmlns="http://www.w3.org/2000/svg">
    <style>
        text { font-family: system-ui, -apple-system, BlinkMacSystemFont; }
    </style>
    
    <text x="0" y ="42" fill="#ffffffff" font-size="12">GDScript 46.3%</text>
    <rect x="0" y="46" width="120" height="8" fill="#ff0000ff" />
    
    <text x="0" y ="74" fill="#ffffffff" font-size="12">Python 16.2%</text>
    <rect x="0" y="78" width="42" height="8" fill="#ff0000ff" />
    
    <text x="0" y ="106" fill="#ffffffff" font-size="12">C++ 12.8%</text>
    <rect x="0" y="110" width="33" height="8" fill="#ff0000ff" />
    
    <text x="0" y ="138" fill="#ffffffff" font-size="12">Rust 10.0%</text>
    <rect x="0" y="142" width="26" height="8" fill="#ff0000ff" />
    
    <text x="0" y ="170" fill="#ffffffff" font-size="12">Ruby 6.8%</text>
    <rect x="0" y="174" width="18" height="8" fill="#ff0000ff" />
    
    <text x="0" y ="202" fill="#ffffffff" font-size="12">GDShader 4.5%</text>
    <rect x="0" y="206" width="12" height="8" fill="#ff0000ff" />
    
    <text x="0" y ="234" fill="#ffffffff" font-size="12">C# 1.7%</text>
    <rect x="0" y="238" width="4" height="8" fill="#ff0000ff" />
    
    <text x="0" y ="266" fill="#ffffffff" font-size="12">JavaScript 1.6%</text>
    <rect x="0" y="270" width="4" height="8" fill="#ff0000ff" />
    
    <text x="0" y ="298" fill="#ffffffff" font-size="12">CSS 0.1%</text>
    <rect x="0" y="302" width="0" height="8" fill="#ff0000ff" />
    
    <text x="0" y ="330" fill="#ffffffff" font-size="12">Shell 0.1%</text>
    <rect x="0" y="334" width="0" height="8" fill="#ff0000ff" />
    
</svg>