<svg width="260" height="350" viewBox="0 0 260 350"
    xmlns="http://www.w3.org/2000/svg">
    <style>
        text { font-family: system-ui, -apple-system, BlinkMacSystemFont; }
    </style>
    
    <text x="0" y ="42" fill="#ffffffff" font-size="12">Python 38.0%</text>
    <rect x="0" y="46" width="99" height="8" fill="#ff0000ff" />
    
    <text x="0" y ="74" fill="#ffffffff" font-size="12">C++ 30.0%</text>
    <rect x="0" y="78" width="78" height="8" fill="#ff0000ff" />
    
    <text x="0" y ="106" fill="#ffffffff" font-size="12">Rust 23.4%</text>
    <rect x="0" y="110" width="61" height="8" fill="#ff0000ff" />
    
    <text x="0" y ="138" fill="#ffffffff" font-size="12">C# 3.9%</text>
    <rect x="0" y="142" width="10" height="8" fill="#ff0000ff" />
    
    <text x="0" y ="170" fill="#ffffffff" font-size="12">JavaScript 3.9%</text>
    <rect x="0" y="174" width="10" height="8" fill="#ff0000ff" />
    
    <text x="0" y ="202" fill="#ffffffff" font-size="12">CSS 0.3%</text>
    <rect x="0" y="206" width="1" height="8" fill="#ff0000ff" />
    
    <text x="0" y ="234" fill="#ffffffff" font-size="12">Shell 0.2%</text>
    <rect x="0" y="238" width="1" height="8" fill="#ff0000ff" />
    
    <text x="0" y ="266" fill="#ffffffff" font-size="12">HTML 0.1%</text>
    <rect x="0" y="270" width="0" height="8" fill="#ff0000ff" />
    
    <text x="0" y ="298" fill="#ffffffff" font-size="12">Makefile 0.1%</text>
    <rect x="0" y="302" width="0" height="8" fill="#ff0000ff" />
    
    <text x="0" y ="330" fill="#ffffffff" font-size="12">Batchfile 0.0%</text>
    <rect x="0" y="334" width="0" height="8" fill="#ff0000ff" />
    
</svg>